HIERARCHY
ROOT Hips
{
     OFFSET 21.81140 93.56280 -27.45850
     CHANNELS 6 Xposition Yposition Zposition Zrotation Xrotation Yrotation
     JOINT Spine
     {
          OFFSET 0.00000 11.89050 0.00000
          CHANNELS 3 Zrotation Xrotation Yrotation
          JOINT Spine1
          {
               OFFSET 0.00000 25.65740 0.12766
               CHANNELS 3 Zrotation Xrotation Yrotation
               JOINT HEad
               {
                    OFFSET 0.00000 8.73416 0.01134
                    CHANNELS 3 Zrotation Xrotation Yrotation
                    End Site
                    {
                         OFFSET -0.29000 12.77420 2.51395
                    }
               }
               JOINT LeftShoulder1
               {
                    OFFSET 8.99000 -0.36225 -0.22000
                    CHANNELS 3 Zrotation Xrotation Yrotation
                    JOINT LeftArm
                    {
                         OFFSET 10.28270 -0.00338 0.32212
                         CHANNELS 3 Zrotation Xrotation Yrotation
                         JOINT LeftForeArm
                         {
                              OFFSET 32.76690 0.09914 -1.42434
                              CHANNELS 3 Zrotation Xrotation Yrotation
                              JOINT LeftHand
                              {
                                   OFFSET 27.56430 0.08536 1.02216
                                   CHANNELS 3 Zrotation Xrotation Yrotation
                                   End Site
                                   {
                                        OFFSET 16.74430 -0.60000 1.50291
                                   }
                              }
                         }
                    }
               }
               JOINT RightShoulder
               {
                    OFFSET -8.99000 -0.36225 -0.22000
                    CHANNELS 3 Zrotation Xrotation Yrotation
                    JOINT RightArm
                    {
                         OFFSET -10.28270 -0.00338 0.32212
                         CHANNELS 3 Zrotation Xrotation Yrotation
                         JOINT RightForeArm
                         {
                              OFFSET -32.89710 0.09914 -1.42434
                              CHANNELS 3 Zrotation Xrotation Yrotation
                              JOINT RightHand
                              {
                                   OFFSET -27.49210 0.08536 1.02216
                                   CHANNELS 3 Zrotation Xrotation Yrotation
                                   End Site
                                   {
                                        OFFSET -16.63120 -0.60000 1.50291
                                   }
                              }
                         }
                    }
               }
          }
     }
     JOINT LeftUpLeg
     {
          OFFSET 8.94580 -8.66707 0.10165
          CHANNELS 3 Zrotation Xrotation Yrotation
          JOINT LeftLeg
          {
               OFFSET -0.00000 -44.42270 1.37270
               CHANNELS 3 Zrotation Xrotation Yrotation
               JOINT LeftFoot
               {
                    OFFSET -0.25355 -42.09240 -1.46059
                    CHANNELS 3 Zrotation Xrotation Yrotation
                    JOINT LeftToes
                    {
                         OFFSET -0.04000 -4.41509 8.49910
                         CHANNELS 3 Zrotation Xrotation Yrotation
                         End Site
                         {
                              OFFSET 0.08000 -0.04745 9.77979
                         }
                    }
               }
          }
     }
     JOINT RightUpLeg
     {
          OFFSET -8.94580 -8.66707 0.10165
          CHANNELS 3 Zrotation Xrotation Yrotation
          JOINT RightLeg
          {
               OFFSET -0.00000 -44.42270 1.37270
               CHANNELS 3 Zrotation Xrotation Yrotation
               JOINT RightFoot
               {
                    OFFSET 0.25355 -42.09240 -1.46059
                    CHANNELS 3 Zrotation Xrotation Yrotation
                    JOINT RightToes
                    {
                         OFFSET 0.04000 -4.41509 8.49910
                         CHANNELS 3 Zrotation Xrotation Yrotation
                         End Site
                         {
                              OFFSET -0.08000 -0.13745 9.77979
                         }
                    }
               }
          }
     }
}
MOTION
Frames: 6
Frame Time: 0.01667
21.81140 93.56280 -27.45850 -12.73800 -13.65250 -28.21980 1.61447 12.12210 -1.22200 -1.56121 24.74670 -0.96126 5.96545 -10.16700 12.50070 -0.00000 0.00000 -0.00000 -80.91120 -37.17380 -79.00510 -18.75440 18.08580 -79.29210 14.52480 7.84151 -12.74550 20.08640 1.22866 3.10334 83.74310 -8.65769 73.53550 13.04580 29.78010 93.25970 22.75750 12.22660 7.04135 25.56570 -4.66565 -22.36230 -22.73220 7.06118 62.93280 -7.82467 8.03168 1.00532 10.22110 -2.57140 -54.67670 -14.99160 14.46020 11.69600 39.56060 12.35530 -32.19730 -29.21300 -8.70381 -0.45408 4.46540 -29.97030 14.67480 
22.12970 93.71540 -27.11950 -12.65100 -13.58090 -28.47710 1.21529 12.19270 -1.13010 -1.54813 24.81130 -0.92362 5.85345 -10.74710 12.80560 -0.00000 0.00000 -0.00000 -80.19190 -37.50150 -78.82660 -18.73350 17.85160 -79.33370 14.35680 7.86872 -12.72980 19.89090 1.21203 3.06773 83.73300 -8.49056 73.64680 12.91700 29.76070 93.35470 22.76380 12.22970 7.05319 25.48630 -4.28684 -21.87770 -22.95710 6.54787 63.06100 -7.29789 8.11350 0.93785 10.15860 -3.24930 -55.29920 -15.43310 14.62580 11.90680 39.34950 11.84210 -31.72460 -29.18430 -8.01087 -0.26656 4.60797 -30.60450 14.62810 
22.49390 93.86690 -26.68820 -12.59230 -13.44110 -28.89190 0.88978 12.23550 -1.02481 -1.52433 24.83130 -0.84286 5.82510 -11.28680 13.14800 -0.00000 0.00000 -0.00000 -79.71870 -38.08580 -78.76490 -19.07700 17.85050 -79.28940 14.26420 7.88209 -12.73460 19.66340 1.19078 3.01687 83.75180 -8.23746 73.82090 12.75620 29.74040 93.46440 22.76560 12.23260 7.06640 25.40460 -3.94365 -21.40130 -23.21640 6.21456 63.33440 -6.89195 8.07620 0.87999 10.11160 -3.92303 -56.04880 -15.93710 14.75590 12.20110 39.15620 11.29250 -31.09210 -29.15970 -7.29042 -0.07231 4.70960 -31.12080 14.49160 
22.89190 94.02510 -26.16930 -12.56650 -13.24220 -29.46050 0.60454 12.25380 -0.90670 -1.51093 24.81090 -0.72460 5.83366 -11.75120 13.55320 -0.00000 0.00000 -0.00000 -79.43840 -38.93870 -78.79810 -19.69030 18.09620 -79.19690 14.27710 7.87277 -12.79590 19.49540 1.16927 2.95190 83.71590 -7.91498 74.05720 12.61770 29.72700 93.56520 22.79720 12.22720 7.02452 25.30510 -3.56708 -20.79310 -23.40810 6.01123 63.68850 -6.50269 8.04680 0.82509 10.02760 -4.82133 -57.00740 -16.50010 14.86230 12.60290 38.98980 10.67840 -30.32480 -29.16910 -6.48601 0.14422 4.77913 -31.58020 14.23790 
23.31240 94.20360 -25.57880 -12.55010 -13.00830 -30.14530 0.30944 12.25510 -0.78487 -1.51255 24.75910 -0.59924 5.84389 -12.15800 14.04680 -0.00000 0.00000 -0.00000 -79.27340 -40.02560 -78.88480 -20.37540 18.54360 -79.12640 14.39770 7.83838 -12.92900 19.40620 1.14629 2.86361 83.60620 -7.52694 74.34000 12.49100 29.72550 93.66920 22.85790 12.21490 6.93509 25.15150 -3.09629 -19.93640 -23.45470 5.84420 64.03740 -6.03260 8.16535 0.76620 9.84780 -6.08919 -58.14330 -17.13170 14.94380 13.08740 38.84800 10.02880 -29.40740 -29.11420 -5.60237 0.38053 4.77485 -31.85620 13.79360 
23.75080 94.41100 -24.93680 -12.52150 -12.76270 -30.89120 -0.01500 12.24970 -0.68085 -1.50847 24.69380 -0.51865 5.87023 -12.57650 14.64760 -0.00000 0.00000 -0.00000 -79.25590 -41.35170 -79.03150 -21.01910 19.21900 -79.11950 14.61960 7.78231 -13.10900 19.32070 1.11912 2.75447 83.49460 -7.06902 74.65180 12.35270 29.73810 93.78980 22.92310 12.20430 6.85240 24.92480 -2.49983 -18.78930 -23.34550 5.60698 64.28150 -5.40555 8.48790 0.69289 9.53123 -7.72118 -59.29560 -17.82210 14.98620 13.59530 38.70950 9.41980 -28.32120 -28.82030 -4.69637 0.61483 4.64394 -31.73660 13.11670 
